<svg width="16" height="19" viewBox="0 0 16 19" fill="none" xmlns="http://www.w3.org/2000/svg">
<path id="Vector" d="M4 11.115C3.79333 11.115 3.61333 11.0383 3.46 10.885C3.30667 10.7317 3.23 10.5517 3.23 10.345C3.23 10.1383 3.30667 9.95867 3.46 9.806C3.61333 9.65267 3.79333 9.576 4 9.576C4.20667 9.576 4.38667 9.65267 4.54 9.806C4.69333 9.95933 4.77 10.1393 4.77 10.346C4.77 10.552 4.69333 10.7317 4.54 10.885C4.38667 11.0383 4.20667 11.115 4 11.115ZM8 11.115C7.79333 11.115 7.61333 11.0383 7.46 10.885C7.30667 10.7317 7.23 10.5517 7.23 10.345C7.23 10.1383 7.30667 9.95867 7.46 9.806C7.61333 9.65267 7.79333 9.576 8 9.576C8.20667 9.576 8.38667 9.65267 8.54 9.806C8.69333 9.95933 8.77 10.1393 8.77 10.346C8.77 10.552 8.69333 10.7317 8.54 10.885C8.38667 11.0383 8.20667 11.115 8 11.115ZM12 11.115C11.7933 11.115 11.6133 11.0383 11.46 10.885C11.3067 10.7317 11.23 10.5517 11.23 10.345C11.23 10.1383 11.3067 9.95867 11.46 9.806C11.6133 9.65267 11.7933 9.576 12 9.576C12.2067 9.576 12.3867 9.65267 12.54 9.806C12.6933 9.95933 12.77 10.1393 12.77 10.346C12.77 10.552 12.6933 10.7317 12.54 10.885C12.3867 11.0383 12.2067 11.115 12 11.115ZM1.615 18.23C1.155 18.23 0.771 18.076 0.463 17.768C0.154333 17.4593 0 17.075 0 16.615V3.845C0 3.385 0.154333 3.001 0.463 2.693C0.771 2.38433 1.155 2.23 1.615 2.23H3.385V0H4.462V2.23H11.615V0H12.615V2.23H14.385C14.845 2.23 15.229 2.38433 15.537 2.693C15.8457 3.001 16 3.385 16 3.845V16.615C16 17.075 15.846 17.459 15.538 17.767C15.2293 18.0757 14.845 18.23 14.385 18.23H1.615ZM1.615 17.23H14.385C14.5383 17.23 14.6793 17.166 14.808 17.038C14.936 16.9093 15 16.7683 15 16.615V7.845H1V16.615C1 16.7683 1.064 16.9093 1.192 17.038C1.32067 17.166 1.46167 17.23 1.615 17.23Z" fill="#9B9FAE"/>
</svg>
