<svg width="30" height="30" viewBox="0 0 30 30" fill="none" xmlns="http://www.w3.org/2000/svg">
<g id="Vesi icons">
<path id="Subtract" fill-rule="evenodd" clip-rule="evenodd" d="M7.09375 3.34473C5.71304 3.34473 4.59375 4.46401 4.59375 5.84473V23.3447C4.59375 24.7254 5.71304 25.8447 7.09375 25.8447H22.1623C23.516 25.8447 24.6237 24.7673 24.6613 23.4142L24.9922 11.519C24.9969 11.3473 24.9308 11.1812 24.8093 11.0597L20.8438 7.09473L17.167 3.41795C17.1201 3.37107 17.0565 3.34473 16.9902 3.34473H7.09375ZM10.6246 11.1633C11.4876 11.1633 12.1871 10.4638 12.1871 9.60083C12.1871 8.73788 11.4876 8.03833 10.6246 8.03833H8.74963C7.88669 8.03833 7.18713 8.73788 7.18713 9.60083C7.18713 10.4638 7.88669 11.1633 8.74963 11.1633H10.6246ZM22.1871 19.6008C22.1871 20.4638 21.4876 21.1633 20.6246 21.1633H8.74963C7.88669 21.1633 7.18713 20.4638 7.18713 19.6008C7.18713 18.7379 7.88669 18.0383 8.74963 18.0383H20.6246C21.4876 18.0383 22.1871 18.7379 22.1871 19.6008ZM13.1246 16.1633C13.9876 16.1633 14.6871 15.4638 14.6871 14.6008C14.6871 13.7379 13.9876 13.0383 13.1246 13.0383H8.74963C7.88669 13.0383 7.18713 13.7379 7.18713 14.6008C7.18713 15.4638 7.88669 16.1633 8.74963 16.1633H13.1246Z" fill="#3E7B52"/>
<path id="Polygon 3" d="M16.8751 3.56706C16.8751 3.40391 17.0723 3.32224 17.1877 3.43764L17.5003 3.75049L18.1253 4.37549L19.3753 5.62549L21.2503 7.50049L24.5734 10.8233C24.7309 10.9808 24.6194 11.2501 24.3967 11.2501L19.3757 11.251C17.9948 11.2513 16.8752 10.132 16.8752 8.75109L16.8751 3.56706Z" fill="#EEFCF5"/>
</g>
</svg>
